<svg width="100" height="100" viewBox="0 0 100 100" fill="none" xmlns="http://www.w3.org/2000/svg">
<rect width="100" height="100" rx="50" fill="#ED1C24"/>
<path d="M15.7488 50.3368V54.8793H13V44H15.7488V48.4074H21.8728V44H24.6133V54.8793H21.8728V50.3366L15.7488 50.3368ZM29.6048 50.5175C29.6048 52.4371 30.2795 53.2414 32.5485 53.2414C34.8258 53.2414 35.4802 52.4371 35.4802 50.5175V44H38.2316V50.5767C38.2316 51.9715 38.0436 52.9242 37.4601 53.4991C36.3909 54.5618 34.8258 55 32.5485 55C30.2795 55 28.6911 54.5618 27.6202 53.4991C27.0172 52.9134 26.8747 51.9562 26.8747 50.5767V44H29.6041V50.5175H29.6048ZM47.2073 44L52.7807 54.8793H49.7226L48.5194 52.292H42.8429L41.676 54.8793H38.767L44.2898 44H47.2073ZM43.7325 50.3527H47.6349L45.6467 46.1695L43.7325 50.3527ZM67.3647 54.8791H63.9968L61.2106 46.7591L58.7755 54.8793H55.4273L51.0773 44H54.0276L57.0488 52.3603L59.5951 44H62.8364L65.7675 52.3603L68.5826 44H71.4025L67.3647 54.8791ZM75.1101 48.4233H82.7064V50.3156H75.0882C75.111 52.2761 76.0334 52.9878 78.192 52.9878H82.7074V54.8793H78.0677C76.4876 54.8793 75.2659 54.7775 73.9945 53.9245C72.6485 53.0348 71.9944 51.6098 71.9944 49.6403C71.9944 45.7914 73.9438 44 78.1394 44H82.7079V45.8953H78.1927C76.2152 45.8953 75.2162 46.7164 75.1098 48.4233H75.1101ZM85.1282 44V54.8793H88V44H85.1282Z" fill="white"/>
</svg>
